#!OML:ASF F:\VICON\USERDATA\INSTALL\rory3\rory3.ASF
:FULLY-SPECIFIED
:DEGREES
53
root 0.5471449281300405 18.155139161667 21.949343062422624 3.0358224989351092 0.542507948769045 -4.691731689674663
lfemur -33.98086526690386 1.7738439452899024 -18.889539341221834
ltibia 40.605110286560134
lfoot -1.3190263248871694 -7.685849516935203
ltoes -7.0676116687929555
rfemur 0.4648296644079295 4.947365344562486 31.786746819536244
rtibia 35.649467849133956
rfoot -6.349942611048359 -5.8942290862843585
rtoes 2.5844039768197504
lowerback 12.730352029618897 1.5355764662753049 4.659426294038691
upperback -1.0204878706990637 3.9702341262894247 1.796118877075307
thorax -8.391084674306118 1.6243191840892517 -1.9208266803693603
lowerneck -19.223002089664224 -4.650222016325599 -1.7152673983484357
upperneck 9.876003242684192 -6.599133338089113 3.1498962494742537
head 6.215648950882771 -2.7898127721520765 0.6474781273077823
lclavicle 4.287488207731266e-15 5.758861652908908e-17
lhumerus -59.53722337388458 -9.85850693558495 96.98773967201228
lradius 107.80113578346852
lwrist 28.652829918823095
lhand -29.760966792486236 2.890741900733124
lfingers 7.125019999999998
lthumb -3.3914501752320323 32.9241279123667
rclavicle 4.2875270003824495e-15 5.76164621395803e-17
rhumerus -35.9586796909446 15.48267802137652 -96.92111207627619
rradius 105.61189543604861
rwrist -9.557167056799303
rhand -20.34770968009598 36.46479457503916
rfingers 7.125019999999998
rthumb 6.057125657668377 6.401767405756753
54
root 0.5883880914802452 18.272901345532826 22.418849828126 2.973975290373824 1.1683303627109767 -4.464726153032817
lfemur -32.92794503770365 1.1112752440430302 -19.49353919572406
ltibia 35.45856910831636
lfoot -1.924433240267913 -8.565698199971624
ltoes -6.586838685482736
rfemur 1.1618520186684442 5.396765009961911 31.269438877986882
rtibia 36.10688959996838
rfoot -3.5681947794406677 -5.7232683680433665
rtoes 2.0567828263799552
lowerback 12.215890866881288 1.6403069910283739 4.62411171052186
upperback -1.193668814850556 4.060846516807473 1.6361013431064224
thorax -8.240839709502298 1.6920309815025538 -2.0054703068976334
lowerneck -19.1882253316221 -4.73095205366072 -1.7652957350650165
upperneck 9.877311396883561 -6.6175082305067505 3.2133202789364628
head 6.233153272634161 -2.790279945974084 0.6691540070475466
lclavicle 4.287488207731266e-15 5.758861652908908e-17
lhumerus -60.326121190811534 -9.268105846843502 96.65575606264856
lradius 107.37729516228684
lwrist 28.62950035678639
lhand -29.897416210859962 2.9966987888887555
lfingers 7.125019999999998
lthumb -3.4666361879214715 32.994208540082916
rclavicle 4.28752700038245e-15 5.761646213958048e-17
rhumerus -35.7907971007263 15.895566742153775 -96.92596188797407
rradius 105.25299287242835
rwrist -9.597809325156817
rhand -20.37323728453032 36.4574140744563
rfingers 7.125019999999998
rthumb 6.130934549039166 6.462051375447087
55
root 0.6135129382995528 18.355405943766826 22.81792557432116 2.981700179274362 1.6456011799087849 -4.4847706491149015
lfemur -29.249220820825236 1.2198519310697578 -18.955028278153517
ltibia 32.17142828518489
lfoot -0.975734556614247 -8.986899600439948
ltoes -6.108461287689652
rfemur 1.5599725364147083 6.007221664157129 31.422496332143062
rtibia 38.013805616321804
rfoot -1.9978208563454665 -5.887545207525231
rtoes 1.565315775071348
lowerback 11.836536086805035 1.7682426935981397 4.6136291501054
upperback -1.3109066899724997 4.284966852124949 1.5427395662304588
thorax -8.169339739040083 1.683530301866415 -2.2174754887889585
lowerneck -19.11714339917373 -4.7511077857917305 -1.7816975307629788
upperneck 9.911264883828729 -6.5689649276700885 3.3102661406608767
head 6.268789690504254 -2.7648758737699537 0.6995085465976487
lclavicle 4.287488207731266e-15 5.758861652908908e-17
lhumerus -61.06621240894808 -8.989827617899207 96.35173439106117
lradius 106.88698764364315
lwrist 28.618873181423968
lhand -30.037748914001952 3.1140669013778517
lfingers 7.125019999999998
lthumb -3.4810003685166717 33.061149351927305
rclavicle 4.28752700038245e-15 5.761646213958058e-17
rhumerus -35.793769446541624 16.288963950969727 -97.01783445982385
rradius 104.98487348007338
rwrist -9.68091135674422
rhand -20.45018375580304 36.393885577731744
rfingers 7.125019999999998
rthumb 6.083863509409914 6.432896007407268
56
root 0.6267826875580838 18.412874824183667 23.624940551865055 3.013392186407511 1.9756945400279236 -4.620982886870541
lfemur -27.0994242907163 1.0916484645353641 -19.16642525009249
ltibia 30.372124749247998
lfoot 0.30118559947643775 -9.210688757556431
ltoes -5.523476801169316
rfemur 1.0953927861022805 6.401133542031635 31.549439502535797
rtibia 41.18768253052083
rfoot 0.02962014795624035 -5.766777881709294
rtoes 0.6920974323435339
lowerback 11.599843356078953 1.8679666585797325 4.538727949564892
upperback -1.4100938779701735 4.416122182220152 1.4386905825409189
thorax -8.074480858191706 1.7598150446999319 -2.148887375950622
lowerneck -19.143398633849674 -4.775122610561059 -1.7970171662070225
upperneck 9.797220692644496 -6.511149651890092 3.3790595825064496
head 6.28509201965873 -2.751500291208565 0.7237125797520039
lclavicle 4.287488207731266e-15 5.758861652908908e-17
lhumerus -61.56368801113661 -8.900313138627718 96.17629696181739
lradius 106.38044456785917
lwrist 28.47703461433236
lhand -30.07454062482362 3.153873080242027
lfingers 7.125019999999998
lthumb -3.566869490104608 33.07508545053486
rclavicle 4.28752700038245e-15 5.76164621395807e-17
rhumerus -35.74330312553953 16.702321448461568 -97.13681542568924
rradius 104.7800081391511
rwrist -9.741230468896768
rhand -20.450187441544855 36.379449515397816
rfingers 7.125019999999998
rthumb 6.108303644808464 6.528456732800784
